<?xml version="1.0" ?><!DOCTYPE svg  PUBLIC '-//W3C//DTD SVG 1.1//EN'  'http://www.w3.org/Graphics/SVG/1.1/DTD/svg11.dtd'><svg enable-background="new 0 0 128 128" id="Слой_1" version="1.1" viewBox="0 0 128 128" xml:space="preserve" xmlns="http://www.w3.org/2000/svg" xmlns:xlink="http://www.w3.org/1999/xlink"><path d="M124,24H45l-9.3-9.3C35.3,14.3,34.7,14,34,14H4c-1.4,0-2.5,1.1-2.5,2.5v95c0,1.4,1.1,2.5,2.5,2.5h120  c1.4,0,2.5-1.1,2.5-2.5v-85C126.5,25.1,125.4,24,124,24z M121.5,109H6.5V44H114c1.4,0,2.5-1.1,2.5-2.5S115.4,39,114,39H6.5V19H33  l9.3,9.3c0.5,0.5,1.1,0.7,1.8,0.7h77.5V109z" fill="#4A374F"/></svg>